<?xml version="1.0" encoding="UTF-8" standalone="no"?>
<svg class="circle-0" version="1.1" xmlns="http://www.w3.org/2000/svg" xmlns:xlink="http://www.w3.org/1999/xlink" preserveAspectRatio="xMidYMid meet" viewBox="144.8368794326242 137.59929078014204 376.0000000000001 377.0000000000001" width="350" height="351">
    <defs>
        <path d="M354.24 151.9L361.21 152.9L368.09 154.17L374.87 155.7L381.55 157.5L388.13 159.55L394.59 161.85L400.93 164.4L407.14 167.18L413.23 170.2L419.18 173.44L424.99 176.91L430.65 180.59L436.16 184.48L441.51 188.57L446.7 192.87L451.72 197.35L456.56 202.03L461.22 206.88L465.69 211.91L469.97 217.11L474.05 222.48L477.93 228L481.6 233.68L485.06 239.51L488.29 245.48L491.3 251.58L494.08 257.81L496.61 264.17L498.91 270.65L500.96 277.25L502.75 283.95L504.28 290.75L505.54 297.65L506.54 304.64L507.26 311.71L507.69 318.87L507.84 326.1L507.69 333.33L507.26 340.48L506.54 347.56L505.54 354.55L504.28 361.45L502.75 368.25L500.96 374.95L498.91 381.55L496.61 388.02L494.08 394.38L491.3 400.62L488.29 406.72L485.06 412.69L481.6 418.52L477.93 424.19L474.05 429.72L469.97 435.09L465.69 440.29L461.22 445.32L456.56 450.17L451.72 454.85L446.7 459.33L441.51 463.62L436.16 467.72L430.65 471.61L424.99 475.29L419.18 478.75L413.23 482L407.14 485.01L400.93 487.8L394.59 490.34L388.13 492.65L381.55 494.7L374.87 496.5L368.09 498.03L361.21 499.3L354.24 500.3L347.18 501.02L340.05 501.45L332.84 501.6L325.63 501.45L318.49 501.02L311.44 500.3L304.47 499.3L297.59 498.03L290.8 496.5L284.12 494.7L277.55 492.65L271.09 490.34L264.75 487.8L258.53 485.01L252.44 482L246.49 478.75L240.68 475.29L235.02 471.61L229.51 467.72L224.16 463.62L218.98 459.33L213.96 454.85L209.12 450.17L204.46 445.32L199.98 440.29L195.7 435.09L191.62 429.72L187.74 424.19L184.07 418.52L180.62 412.69L177.38 406.72L174.37 400.62L171.6 394.38L169.06 388.02L166.76 381.55L164.72 374.95L162.93 368.25L161.39 361.45L160.13 354.55L159.13 347.56L158.42 340.48L157.98 333.33L157.84 326.1L157.98 318.87L158.42 311.71L159.13 304.64L160.13 297.65L161.39 290.75L162.93 283.95L164.72 277.25L166.76 270.65L169.06 264.17L171.6 257.81L174.37 251.58L177.38 245.48L180.62 239.51L184.07 233.68L187.74 228L191.62 222.48L195.7 217.11L199.98 211.91L204.46 206.88L209.12 202.03L213.96 197.35L218.98 192.87L224.16 188.57L229.51 184.48L235.02 180.59L240.68 176.91L246.49 173.44L252.44 170.2L258.53 167.18L264.75 164.4L271.09 161.85L277.55 159.55L284.12 157.5L290.8 155.7L297.59 154.17L304.47 152.9L311.44 151.9L318.49 151.18L325.63 150.75L332.84 150.6L340.05 150.75L347.18 151.18L347.18 151.18L354.24 151.9ZM314.8 179.31L308.93 180.15L303.13 181.22L297.42 182.51L291.79 184.03L286.25 185.76L280.8 187.7L275.46 189.84L270.22 192.19L265.09 194.73L260.08 197.46L255.18 200.38L250.41 203.48L245.77 206.76L241.26 210.21L236.89 213.83L232.66 217.61L228.58 221.55L224.66 225.64L220.89 229.88L217.28 234.26L213.84 238.78L210.57 243.44L207.48 248.22L204.57 253.13L201.84 258.16L199.31 263.3L196.97 268.56L194.83 273.92L192.89 279.38L191.17 284.93L189.66 290.58L188.37 296.31L187.3 302.12L186.46 308.02L185.86 313.98L185.49 320.01L185.37 326.1L185.49 332.19L185.86 338.22L186.46 344.18L187.3 350.07L188.37 355.89L189.66 361.62L191.17 367.27L192.89 372.82L194.83 378.28L196.97 383.64L199.31 388.89L201.84 394.04L204.57 399.07L207.48 403.98L210.57 408.76L213.84 413.42L217.28 417.94L220.89 422.32L224.66 426.56L228.58 430.65L232.66 434.59L236.89 438.37L241.26 441.99L245.77 445.44L250.41 448.72L255.18 451.82L260.08 454.74L265.09 457.47L270.22 460.01L275.46 462.36L280.8 464.5L286.25 466.44L291.79 468.17L297.42 469.69L303.13 470.98L308.93 472.05L314.8 472.89L320.75 473.5L326.76 473.86L332.84 473.99L338.91 473.86L344.92 473.5L350.87 472.89L356.74 472.05L362.54 470.98L368.26 469.69L373.89 468.17L379.43 466.44L384.87 464.5L390.21 462.36L395.45 460.01L400.58 457.47L405.6 454.74L410.49 451.82L415.26 448.72L419.9 445.44L424.41 441.99L428.78 438.37L433.01 434.59L437.09 430.65L441.02 426.56L444.79 422.32L448.39 417.94L451.84 413.42L455.1 408.76L458.2 403.98L461.11 399.07L463.83 394.04L466.37 388.89L468.71 383.64L470.85 378.28L472.78 372.82L474.5 367.27L476.01 361.62L477.3 355.89L478.37 350.07L479.21 344.18L479.81 338.22L480.18 332.19L480.3 326.1L480.18 320.01L479.81 313.98L479.21 308.02L478.37 302.12L477.3 296.31L476.01 290.58L474.5 284.93L472.78 279.38L470.85 273.92L468.71 268.56L466.37 263.3L463.83 258.16L461.11 253.13L458.2 248.22L455.1 243.44L451.84 238.78L448.39 234.26L444.79 229.88L441.02 225.64L437.09 221.55L433.01 217.61L428.78 213.83L424.41 210.21L419.9 206.76L415.26 203.48L410.49 200.38L405.6 197.46L400.58 194.73L395.45 192.19L390.21 189.84L384.87 187.7L379.43 185.76L373.89 184.03L368.26 182.51L362.54 181.22L356.74 180.15L350.87 179.31L344.92 178.7L338.91 178.34L332.84 178.21L326.76 178.34L320.75 178.7L320.75 178.7L314.8 179.31Z" id="e86CzS37px"></path>
    </defs>
    <g>
        <g>
            <use xlink:href="#e86CzS37px" opacity="1" fill="currentColor" fill-opacity="1"></use>
        </g>
    </g>
</svg>