<?xml version="1.0" encoding="UTF-8" standalone="no"?>
<svg class="circle-2" version="1.1" xmlns="http://www.w3.org/2000/svg" xmlns:xlink="http://www.w3.org/1999/xlink" preserveAspectRatio="xMidYMid meet" viewBox="132.842 125.59929078014227 379.99 379.9999999999999" width="349.99" height="350">
    <defs>
        <path d="M344.24 141.9L351.21 142.9L358.09 144.17L364.87 145.7L371.55 147.5L378.13 149.55L384.59 151.85L390.93 154.4L397.14 157.18L403.23 160.2L409.18 163.44L414.99 166.91L420.65 170.59L426.16 174.48L431.51 178.57L436.7 182.87L441.72 187.35L446.56 192.03L451.22 196.88L455.69 201.91L459.97 207.11L464.05 212.48L467.93 218L471.6 223.68L475.06 229.51L478.29 235.48L481.3 241.58L484.08 247.81L486.61 254.17L488.91 260.65L490.96 267.25L492.75 273.95L494.28 280.75L495.54 287.65L496.54 294.64L497.26 301.71L497.69 308.87L497.83 315.85L497.69 322.81L497.26 329.94L496.54 337L495.54 343.97L494.28 350.85L492.75 357.63L490.96 364.31L488.91 370.89L486.61 377.35L484.08 383.69L481.3 389.91L478.29 395.99L475.06 401.94L471.6 407.75L467.93 413.42L464.05 418.92L459.97 424.27L455.69 429.46L451.22 434.48L446.56 439.32L441.72 443.98L436.7 448.45L431.51 452.73L426.16 456.82L420.65 460.69L414.99 464.36L409.18 467.82L403.23 471.05L397.14 474.06L390.93 476.84L384.59 479.38L378.13 481.67L371.55 483.72L364.87 485.51L358.09 487.04L351.21 488.31L344.24 489.3L337.18 490.02L330.05 490.45L322.84 490.6L315.63 490.45L308.49 490.02L301.44 489.3L294.47 488.31L287.59 487.04L280.8 485.51L274.12 483.72L267.55 481.67L261.09 479.38L254.75 476.84L248.53 474.06L242.44 471.05L236.49 467.82L230.68 464.36L225.02 460.69L219.51 456.82L214.16 452.73L208.98 448.45L203.96 443.98L199.12 439.32L194.46 434.48L189.98 429.46L185.7 424.27L181.62 418.92L177.74 413.42L174.07 407.75L170.62 401.94L167.38 395.99L164.37 389.91L161.6 383.69L159.06 377.35L156.76 370.89L154.72 364.31L152.93 357.63L151.39 350.85L150.13 343.97L149.13 337L148.42 329.94L147.98 322.81L147.84 315.85L147.98 308.87L148.42 301.71L149.13 294.64L150.13 287.65L151.39 280.75L152.93 273.95L154.72 267.25L156.76 260.65L159.06 254.17L161.6 247.81L164.37 241.58L167.38 235.48L170.62 229.51L174.07 223.68L177.74 218L181.62 212.48L185.7 207.11L189.98 201.91L194.46 196.88L199.12 192.03L203.96 187.35L208.98 182.87L214.16 178.57L219.51 174.48L225.02 170.59L230.68 166.91L236.49 163.44L242.44 160.2L248.53 157.18L254.75 154.4L261.09 151.85L267.55 149.55L274.12 147.5L280.8 145.7L287.59 144.17L294.47 142.9L301.44 141.9L308.49 141.18L315.63 140.75L322.84 140.6L330.05 140.75L337.18 141.18L337.18 141.18L344.24 141.9ZM304.8 169.31L298.93 170.15L293.13 171.22L287.42 172.51L281.79 174.03L276.25 175.76L270.8 177.7L265.46 179.84L260.22 182.19L255.09 184.73L250.08 187.46L245.18 190.38L240.41 193.48L235.77 196.76L231.26 200.21L226.89 203.83L222.66 207.61L218.58 211.55L214.66 215.64L210.89 219.88L207.28 224.26L203.84 228.78L200.57 233.44L197.48 238.22L194.57 243.13L191.84 248.16L189.31 253.3L186.97 258.56L184.83 263.92L182.89 269.38L181.17 274.93L179.66 280.58L178.37 286.31L177.3 292.12L176.46 298.02L175.86 303.98L175.49 310.01L175.37 316.1L175.49 322.19L175.86 328.22L176.46 334.18L177.3 340.07L178.37 345.89L179.66 351.62L181.17 357.27L182.89 362.82L184.83 368.28L186.97 373.64L189.31 378.89L191.84 384.04L194.57 389.07L197.48 393.98L200.57 398.76L203.84 403.42L207.28 407.94L210.89 412.32L214.66 416.56L218.58 420.65L222.66 424.59L226.89 428.37L231.26 431.99L235.77 435.44L240.41 438.72L245.18 441.82L250.08 444.74L255.09 447.47L260.22 450.01L265.46 452.36L270.8 454.5L276.25 456.44L281.79 458.17L287.42 459.69L293.13 460.98L298.93 462.05L304.8 462.89L310.75 463.5L316.76 463.86L322.84 463.99L328.91 463.86L334.92 463.5L340.87 462.89L346.74 462.05L352.54 460.98L358.26 459.69L363.89 458.17L369.43 456.44L374.87 454.5L380.21 452.36L385.45 450.01L390.58 447.47L395.6 444.74L400.49 441.82L405.26 438.72L409.9 435.44L414.41 431.99L418.78 428.37L423.01 424.59L427.09 420.65L431.02 416.56L434.79 412.32L438.39 407.94L441.84 403.42L445.1 398.76L448.2 393.98L451.11 389.07L453.83 384.04L456.37 378.89L458.71 373.64L460.85 368.28L462.78 362.82L464.5 357.27L466.01 351.62L467.3 345.89L468.37 340.07L469.21 334.18L469.81 328.22L470.18 322.19L470.3 316.1L470.18 310.01L469.81 303.98L469.21 298.02L468.37 292.12L467.3 286.31L466.01 280.58L464.5 274.93L462.78 269.38L460.85 263.92L458.71 258.56L456.37 253.3L453.83 248.16L451.11 243.13L448.2 238.22L445.1 233.44L441.84 228.78L438.39 224.26L434.79 219.88L431.02 215.64L427.09 211.55L423.01 207.61L418.78 203.83L414.41 200.21L409.9 196.76L405.26 193.48L400.49 190.38L395.6 187.46L390.58 184.73L385.45 182.19L380.21 179.84L374.87 177.7L369.43 175.76L363.89 174.03L358.26 172.51L352.54 171.22L346.74 170.15L340.87 169.31L334.92 168.7L328.91 168.34L322.84 168.21L316.76 168.34L310.75 168.7L310.75 168.7L304.8 169.31ZM428.63 330.02L428.02 334.26L427.25 338.45L426.32 342.59L425.23 346.66L423.98 350.66L422.58 354.59L421.04 358.46L419.35 362.24L417.51 365.95L415.55 369.57L413.44 373.11L411.21 376.56L408.84 379.92L406.36 383.17L403.75 386.33L401.03 389.39L398.19 392.34L395.24 395.17L392.18 397.9L389.02 400.51L385.77 402.99L382.41 405.36L378.96 407.59L375.42 409.69L371.8 411.66L368.09 413.5L364.31 415.19L360.44 416.73L356.51 418.13L352.51 419.38L348.44 420.47L344.31 421.4L340.12 422.17L335.87 422.78L331.57 423.21L327.23 423.48L322.84 423.57L318.45 423.48L314.1 423.21L309.8 422.78L305.56 422.17L301.37 421.4L297.24 420.47L293.17 419.38L289.16 418.13L285.23 416.73L281.37 415.19L277.58 413.5L273.87 411.66L270.25 409.69L266.71 407.59L263.26 405.36L259.91 402.99L256.65 400.51L253.49 397.9L250.44 395.17L247.49 392.34L244.65 389.39L241.92 386.33L239.32 383.17L236.83 379.92L234.47 376.56L232.23 373.11L230.13 369.57L228.16 365.95L226.33 362.24L224.64 358.46L223.09 354.59L221.69 350.66L220.45 346.66L219.35 342.59L218.42 338.45L217.65 334.26L217.05 330.02L216.61 325.72L216.34 321.38L216.32 320L429.36 320L429.33 321.38L429.07 325.72L429.07 325.72L428.63 330.02Z" id="k1xgfutVem"></path>
    </defs>
    <g>
        <g>
            <use xlink:href="#k1xgfutVem" opacity="1" fill="orange" fill-opacity="1"></use>
        </g>
    </g>
</svg>
