<?xml version="1.0" encoding="UTF-8" standalone="no"?>
<svg class="circle-1" version="1.1" xmlns="http://www.w3.org/2000/svg" xmlns:xlink="http://www.w3.org/1999/xlink" preserveAspectRatio="xMidYMid meet" viewBox="133.58249346771197 126.0992907801419 380 380.0000000000001" width="350" height="350">
    <defs>
        <path d="M337.93 141.68L344.98 142.4L351.95 143.39L358.83 144.66L365.62 146.19L372.3 147.98L378.87 150.03L385.33 152.32L391.67 154.86L397.89 157.64L403.98 160.64L409.93 163.88L415.74 167.33L421.4 171L426.91 174.88L432.26 178.97L437.44 183.25L442.46 187.72L447.3 192.38L451.96 197.22L456.44 202.24L460.72 207.42L464.8 212.77L468.68 218.28L472.35 223.95L475.8 229.75L479.04 235.71L482.05 241.79L484.82 248.01L487.36 254.35L489.65 260.81L491.7 267.38L493.49 274.07L495.02 280.85L496.29 287.73L497.28 294.7L498 301.76L498.44 308.89L498.46 310.01L498.58 316.1L498.58 316.1L498.44 323.31L498 330.44L497.28 337.5L496.29 344.47L495.02 351.35L493.49 358.13L491.7 364.81L489.65 371.39L487.36 377.85L484.82 384.19L482.05 390.41L479.04 396.49L475.8 402.44L472.35 408.25L468.68 413.92L464.8 419.42L460.72 424.77L456.44 429.96L451.96 434.98L447.3 439.82L442.46 444.48L437.44 448.95L432.26 453.23L426.91 457.32L421.4 461.19L415.74 464.86L409.93 468.32L403.98 471.55L397.89 474.56L391.67 477.34L385.33 479.88L378.87 482.17L372.3 484.22L365.62 486.01L358.83 487.54L351.95 488.81L344.98 489.8L337.93 490.52L330.79 490.95L323.58 491.1L316.37 490.95L309.24 490.52L302.18 489.8L295.21 488.81L288.33 487.54L281.55 486.01L274.87 484.22L268.29 482.17L261.83 479.88L255.49 477.34L249.28 474.56L243.19 471.55L237.24 468.32L231.43 464.86L225.77 461.19L220.26 457.32L214.91 453.23L209.72 448.95L204.7 444.48L199.86 439.82L195.2 434.98L190.73 429.96L186.45 424.77L182.37 419.42L178.49 413.92L174.82 408.25L171.36 402.44L168.13 396.49L165.12 390.41L162.34 384.19L159.81 377.85L157.51 371.39L155.46 364.81L153.67 358.13L152.14 351.35L150.87 344.47L149.88 337.5L149.16 330.44L148.73 323.31L148.58 316.1L148.58 316.1L148.73 308.89L149.16 301.76L149.88 294.7L150.87 287.73L152.14 280.85L153.67 274.07L155.46 267.38L157.51 260.81L159.81 254.35L162.34 248.01L165.12 241.79L168.13 235.71L171.36 229.75L174.82 223.95L178.49 218.28L182.37 212.77L186.45 207.42L190.73 202.24L195.2 197.22L199.86 192.38L204.7 187.72L209.72 183.25L214.91 178.97L220.26 174.88L225.77 171L231.43 167.33L237.24 163.88L243.19 160.64L249.28 157.64L255.49 154.86L261.83 152.32L268.29 150.03L274.87 147.98L281.55 146.19L288.33 144.66L295.21 143.39L302.18 142.4L309.24 141.68L316.37 141.25L323.58 141.1L330.79 141.25L337.93 141.68ZM311.5 168.7L305.55 169.31L299.68 170.15L293.88 171.22L288.16 172.51L282.53 174.03L276.99 175.76L271.55 177.7L266.2 179.84L260.97 182.19L255.84 184.73L250.82 187.46L245.93 190.38L241.16 193.48L236.51 196.76L232.01 200.21L227.64 203.83L223.41 207.61L219.33 211.55L215.4 215.64L211.63 219.88L208.02 224.26L204.58 228.78L201.32 233.44L198.22 238.22L195.31 243.13L192.59 248.16L190.05 253.3L187.71 258.56L185.57 263.92L183.64 269.38L181.91 274.93L180.41 280.58L179.11 286.31L178.05 292.12L177.21 298.02L176.61 303.98L176.24 310.01L176.12 316.1L176.24 322.19L176.61 328.22L177.21 334.18L178.05 340.07L179.11 345.89L180.41 351.62L181.91 357.27L183.64 362.82L185.57 368.28L187.71 373.64L190.05 378.89L192.59 384.04L195.31 389.07L198.22 393.98L201.32 398.76L204.58 403.42L208.02 407.94L211.63 412.32L215.4 416.56L219.33 420.65L223.41 424.59L227.64 428.37L232.01 431.99L236.51 435.44L241.16 438.72L245.93 441.82L250.82 444.74L255.84 447.47L260.97 450.01L266.2 452.36L271.55 454.5L276.99 456.44L282.53 458.17L288.16 459.69L293.88 460.98L299.68 462.05L305.55 462.89L311.5 463.5L317.51 463.86L323.58 463.99L329.66 463.86L335.67 463.5L341.62 462.89L347.49 462.05L353.29 460.98L359 459.69L364.63 458.17L370.17 456.44L375.62 454.5L380.96 452.36L386.2 450.01L391.33 447.47L396.34 444.74L401.24 441.82L406.01 438.72L410.65 435.44L415.16 431.99L419.53 428.37L423.76 424.59L427.84 420.65L431.76 416.56L435.53 412.32L439.14 407.94L442.58 403.42L445.85 398.76L448.94 393.98L451.85 389.07L454.58 384.04L457.11 378.89L459.45 373.64L461.59 368.28L463.53 362.82L465.25 357.27L466.76 351.62L468.05 345.89L469.12 340.07L469.96 334.18L470.56 328.22L470.93 322.19L471.05 316.1L470.93 310.01L470.56 303.98L469.96 298.02L469.12 292.12L468.05 286.31L466.76 280.58L465.25 274.93L463.53 269.38L461.59 263.92L459.45 258.56L457.11 253.3L454.58 248.16L451.85 243.13L448.94 238.22L445.85 233.44L442.58 228.78L439.14 224.26L435.53 219.88L431.76 215.64L427.84 211.55L423.76 207.61L419.53 203.83L415.16 200.21L410.65 196.76L406.01 193.48L401.24 190.38L396.34 187.46L391.33 184.73L386.2 182.19L380.96 179.84L375.62 177.7L370.17 175.76L364.63 174.03L359 172.51L353.29 171.22L347.49 170.15L341.62 169.31L335.67 168.7L329.66 168.34L323.58 168.21L317.51 168.34L311.5 168.7ZM319.19 423.48L314.85 423.21L310.55 422.78L306.3 422.17L302.11 421.4L297.98 420.47L293.91 419.38L289.91 418.13L285.97 416.73L282.11 415.19L278.33 413.5L274.62 411.66L271 409.69L267.46 407.59L264.01 405.36L260.65 402.99L257.39 400.51L254.24 397.9L251.18 395.17L248.23 392.34L245.39 389.39L242.67 386.33L240.06 383.17L237.58 379.92L235.21 376.56L232.98 373.11L230.87 369.57L228.9 365.95L227.07 362.24L225.38 358.46L223.84 354.59L222.44 350.66L221.19 346.66L220.1 342.59L219.17 338.45L218.4 334.26L217.79 330.02L217.35 325.72L217.09 321.38L217.06 320L323.58 320L323.58 423.57L319.19 423.48Z" id="a11l9pVALR"></path>
    </defs>
    <g>
        <g>
            <use xlink:href="#a11l9pVALR" opacity="1" fill="currentColor" fill-opacity="1"></use>
        </g>
    </g>
</svg>