<?xml version="1.0" encoding="UTF-8" standalone="no"?>
<svg class="circle-3" version="1.1" xmlns="http://www.w3.org/2000/svg" xmlns:xlink="http://www.w3.org/1999/xlink" preserveAspectRatio="xMidYMid meet" viewBox="132.8368794326242 126.09929078014181 379.9999999999999 380.0000000000002" width="350" height="350">
    <defs>
        <path d="M344.24 142.4L351.21 143.39L358.09 144.66L364.87 146.19L371.55 147.98L378.13 150.03L384.59 152.32L390.93 154.86L397.14 157.64L403.23 160.64L409.18 163.88L414.99 167.33L420.65 171L426.16 174.88L431.51 178.97L436.7 183.25L441.72 187.72L446.56 192.38L451.22 197.22L455.69 202.24L459.97 207.42L464.05 212.77L467.93 218.28L471.6 223.95L475.06 229.75L478.29 235.71L481.3 241.79L484.08 248.01L486.61 254.35L488.91 260.81L490.96 267.38L492.75 274.07L494.28 280.85L495.54 287.73L496.54 294.7L497.26 301.76L497.69 308.89L497.84 316.1L497.69 323.31L497.26 330.44L496.54 337.5L495.54 344.47L494.28 351.35L492.75 358.13L490.96 364.81L488.91 371.39L486.61 377.85L484.08 384.19L481.3 390.41L478.29 396.49L475.06 402.44L471.6 408.25L467.93 413.92L464.05 419.42L459.97 424.77L455.69 429.96L451.22 434.98L446.56 439.82L441.72 444.48L436.7 448.95L431.51 453.23L426.16 457.32L420.65 461.19L414.99 464.86L409.18 468.32L403.23 471.55L397.14 474.56L390.93 477.34L384.59 479.88L378.13 482.17L371.55 484.22L364.87 486.01L358.09 487.54L351.21 488.81L344.24 489.8L337.18 490.52L330.05 490.95L322.84 491.1L315.63 490.95L308.49 490.52L301.44 489.8L294.47 488.81L287.59 487.54L280.8 486.01L274.12 484.22L267.55 482.17L261.09 479.88L254.75 477.34L248.53 474.56L242.44 471.55L236.49 468.32L230.68 464.86L225.02 461.19L219.51 457.32L214.16 453.23L208.98 448.95L203.96 444.48L199.12 439.82L194.46 434.98L189.98 429.96L185.7 424.77L181.62 419.42L177.74 413.92L174.07 408.25L170.62 402.44L167.38 396.49L164.37 390.41L161.6 384.19L159.06 377.85L156.76 371.39L154.72 364.81L152.93 358.13L151.39 351.35L150.13 344.47L149.13 337.5L148.42 330.44L147.98 323.31L147.84 316.1L147.96 310.01L147.98 308.89L148.42 301.76L149.13 294.7L150.13 287.73L151.39 280.85L152.93 274.07L154.72 267.38L156.76 260.81L159.06 254.35L161.6 248.01L164.37 241.79L167.38 235.71L170.62 229.75L174.07 223.95L177.74 218.28L181.62 212.77L185.7 207.42L189.98 202.24L194.46 197.22L199.12 192.38L203.96 187.72L208.98 183.25L214.16 178.97L219.51 174.88L225.02 171L230.68 167.33L236.49 163.88L242.44 160.64L248.53 157.64L254.75 154.86L261.09 152.32L267.55 150.03L274.12 147.98L280.8 146.19L287.59 144.66L294.47 143.39L301.44 142.4L308.49 141.68L315.63 141.25L322.84 141.1L330.05 141.25L337.18 141.68L337.18 141.68L344.24 142.4ZM304.8 169.31L298.93 170.15L293.13 171.22L287.42 172.51L281.79 174.03L276.25 175.76L270.8 177.7L265.46 179.84L260.22 182.19L255.09 184.73L250.08 187.46L245.18 190.38L240.41 193.48L235.77 196.76L231.26 200.21L226.89 203.83L222.66 207.61L218.58 211.55L214.66 215.64L210.89 219.88L207.28 224.26L203.84 228.78L200.57 233.44L197.48 238.22L194.57 243.13L191.84 248.16L189.31 253.3L186.97 258.56L184.83 263.92L182.89 269.38L181.17 274.93L179.66 280.58L178.37 286.31L177.3 292.12L176.46 298.02L175.86 303.98L175.49 310.01L175.37 316.1L175.49 322.19L175.86 328.22L176.46 334.18L177.3 340.07L178.37 345.89L179.66 351.62L181.17 357.27L182.89 362.82L184.83 368.28L186.97 373.64L189.31 378.89L191.84 384.04L194.57 389.07L197.48 393.98L200.57 398.76L203.84 403.42L207.28 407.94L210.89 412.32L214.66 416.56L218.58 420.65L222.66 424.59L226.89 428.37L231.26 431.99L235.77 435.44L240.41 438.72L245.18 441.82L250.08 444.74L255.09 447.47L260.22 450.01L265.46 452.36L270.8 454.5L276.25 456.44L281.79 458.17L287.42 459.69L293.13 460.98L298.93 462.05L304.8 462.89L310.75 463.5L316.76 463.86L322.84 463.99L328.91 463.86L334.92 463.5L340.87 462.89L346.74 462.05L352.54 460.98L358.26 459.69L363.89 458.17L369.43 456.44L374.87 454.5L380.21 452.36L385.45 450.01L390.58 447.47L395.6 444.74L400.49 441.82L405.26 438.72L409.9 435.44L414.41 431.99L418.78 428.37L423.01 424.59L427.09 420.65L431.02 416.56L434.79 412.32L438.39 407.94L441.84 403.42L445.1 398.76L448.2 393.98L451.11 389.07L453.83 384.04L456.37 378.89L458.71 373.64L460.85 368.28L462.78 362.82L464.5 357.27L466.01 351.62L467.3 345.89L468.37 340.07L469.21 334.18L469.81 328.22L470.18 322.19L470.3 316.1L470.18 310.01L469.81 303.98L469.21 298.02L468.37 292.12L467.3 286.31L466.01 280.58L464.5 274.93L462.78 269.38L460.85 263.92L458.71 258.56L456.37 253.3L453.83 248.16L451.11 243.13L448.2 238.22L445.1 233.44L441.84 228.78L438.39 224.26L434.79 219.88L431.02 215.64L427.09 211.55L423.01 207.61L418.78 203.83L414.41 200.21L409.9 196.76L405.26 193.48L400.49 190.38L395.6 187.46L390.58 184.73L385.45 182.19L380.21 179.84L374.87 177.7L369.43 175.76L363.89 174.03L358.26 172.51L352.54 171.22L346.74 170.15L340.87 169.31L334.92 168.7L328.91 168.34L322.84 168.21L316.76 168.34L310.75 168.7L310.75 168.7L304.8 169.31ZM429.36 316.1L429.27 320.49L429 324.83L428.57 329.12L427.96 333.37L427.19 337.56L426.26 341.68L425.17 345.75L423.92 349.75L422.53 353.69L420.98 357.55L419.29 361.33L417.46 365.03L415.49 368.66L413.39 372.19L411.15 375.64L408.79 378.99L406.31 382.25L403.7 385.41L400.98 388.46L398.14 391.41L395.2 394.24L392.14 396.96L388.99 399.57L385.73 402.06L382.38 404.42L378.93 406.65L375.39 408.75L371.77 410.72L368.07 412.55L364.28 414.24L360.42 415.79L356.49 417.19L352.49 418.43L348.42 419.52L344.29 420.45L340.11 421.22L335.86 421.83L331.57 422.27L327.22 422.53L322.84 422.62L318.45 422.53L314.11 422.27L309.81 421.83L305.57 421.22L301.38 420.45L297.25 419.52L293.18 418.43L289.18 417.19L285.25 415.79L281.39 414.24L277.61 412.55L273.9 410.72L270.28 408.75L266.74 406.65L263.3 404.42L259.94 402.06L256.69 399.57L253.53 396.96L250.48 394.24L247.53 391.41L244.69 388.46L241.97 385.41L239.37 382.25L236.88 378.99L234.52 375.64L232.29 372.19L230.18 368.66L228.21 365.03L226.38 361.33L224.69 357.55L223.15 353.69L221.75 349.75L220.51 345.75L219.41 341.68L218.48 337.56L217.71 333.37L217.11 329.12L216.67 324.83L216.41 320.49L216.32 316.1L216.41 311.71L216.67 307.37L217.11 303.07L217.71 298.83L218.48 294.64L219.41 290.51L220.51 286.45L221.75 282.45L223.15 278.51L224.69 274.65L226.38 270.87L228.21 267.16L230.18 263.54L232.29 260.01L234.52 256.56L236.88 253.21L239.37 249.95L241.97 246.79L244.69 243.74L247.53 240.79L250.48 237.96L253.53 235.23L256.69 232.63L259.94 230.14L263.3 227.78L266.74 225.55L270.28 223.44L273.9 221.48L277.61 219.65L281.39 217.96L285.25 216.41L289.18 215.01L293.18 213.77L297.25 212.68L301.38 211.75L305.57 210.97L309.81 210.37L314.11 209.93L318.45 209.67L322.84 209.58L322.84 313.15L429.3 313.15L429.3 313.15L429.36 316.1Z" id="eeandehWy"></path>
    </defs>
    <g>
        <g>
            <use xlink:href="#eeandehWy" opacity="1" fill="currentColor" fill-opacity="1"></use>
        </g>
    </g>
</svg>