<?xml version="1.0" encoding="UTF-8" standalone="no"?>
<!DOCTYPE svg PUBLIC "-//W3C//DTD SVG 1.1//EN" "http://www.w3.org/Graphics/SVG/1.1/DTD/svg11.dtd">
<svg version="1.1"
	xmlns="http://www.w3.org/2000/svg"
	xmlns:xlink="http://www.w3.org/1999/xlink" preserveAspectRatio="xMidYMid meet" viewBox="153.34397163120573 146.60638297872336 338.98581560283696 338.98581560283696" width="321.99" height="321.99" style="color:"#000000";>
	<defs>
		<path d="M460.32 327.41L459.76 332.97L458.97 338.46L457.98 343.89L456.77 349.23L455.36 354.5L453.74 359.68L451.93 364.77L449.93 369.77L447.74 374.67L445.37 379.47L442.82 384.16L440.1 388.74L437.21 393.2L434.15 397.54L430.93 401.76L427.56 405.85L424.03 409.8L420.36 413.62L416.54 417.29L412.59 420.82L408.5 424.19L404.28 427.41L399.94 430.47L395.48 433.36L390.9 436.09L386.21 438.64L381.41 441.01L376.51 443.2L371.51 445.2L366.42 447.01L361.24 448.62L355.97 450.03L350.62 451.24L345.2 452.24L339.71 453.02L334.14 453.58L328.52 453.93L322.84 454.04L317.15 453.93L311.53 453.58L305.97 453.02L300.47 452.24L295.05 451.24L289.7 450.03L284.44 448.62L279.26 447.01L274.16 445.2L269.16 443.2L264.26 441.01L259.47 438.64L254.78 436.09L250.2 433.36L245.73 430.47L241.39 427.41L237.17 424.19L233.09 420.82L229.13 417.29L225.32 413.62L221.64 409.8L218.12 405.85L214.74 401.76L211.52 397.54L208.47 393.2L205.57 388.74L202.85 384.16L200.3 379.47L197.93 374.67L195.74 369.77L193.74 364.77L191.93 359.68L190.32 354.5L188.91 349.23L187.7 343.89L186.7 338.46L185.92 332.97L185.35 327.41L185.01 321.78L184.97 320L460.7 320L460.66 321.78L460.32 327.41Z" id="aaf9YH83nP"></path>
		<path d="M483.83 316.1C483.83 404.95 411.69 477.09 322.84 477.09C233.98 477.09 161.84 404.95 161.84 316.1C161.84 227.24 233.98 155.11 322.84 155.11C411.69 155.11 483.83 227.24 483.83 316.1Z" id="cBIROkw1x"></path>
	</defs>
	<g color="#000000">
		<g class="fill">
			<use xlink:href="#aaf9YH83nP" opacity="1" fill="currentcolor" fill-opacity="1"></use>
		</g>
		<g>
			<g>
				<use xlink:href="#cBIROkw1x" opacity="1" fill-opacity="0" stroke="currentcolor" stroke-width="17" stroke-opacity="1"></use>
			</g>
		</g>
	</g>
</svg>