<?xml version="1.0" encoding="UTF-8" standalone="no"?>
<!DOCTYPE svg PUBLIC "-//W3C//DTD SVG 1.1//EN" "http://www.w3.org/Graphics/SVG/1.1/DTD/svg11.dtd">
<svg version="1.1" xmlns="http://www.w3.org/2000/svg" xmlns:xlink="http://www.w3.org/1999/xlink" preserveAspectRatio="xMidYMid meet" viewBox="146.84397163120573 140.10638297872336 351.98581560283696 351.98581560283696" width="321.99" height="321.99"><defs><path d="M429.07 325.72L428.63 330.02L428.02 334.26L427.25 338.45L426.32 342.59L425.23 346.66L423.98 350.66L422.58 354.59L421.04 358.46L419.35 362.24L417.51 365.95L415.55 369.57L413.44 373.11L411.21 376.56L408.84 379.92L406.36 383.17L403.75 386.33L401.03 389.39L398.19 392.34L395.24 395.17L392.18 397.9L389.02 400.51L385.77 402.99L382.41 405.36L378.96 407.59L375.42 409.69L371.8 411.66L368.09 413.5L364.31 415.19L360.44 416.73L356.51 418.13L352.51 419.38L348.44 420.47L344.31 421.4L340.12 422.17L335.87 422.78L331.57 423.21L327.23 423.48L322.84 423.57L318.45 423.48L314.1 423.21L309.8 422.78L305.56 422.17L301.37 421.4L297.24 420.47L293.17 419.38L289.16 418.13L285.23 416.73L281.37 415.19L277.58 413.5L273.87 411.66L270.25 409.69L266.71 407.59L263.26 405.36L259.91 402.99L256.65 400.51L253.49 397.9L250.44 395.17L247.49 392.34L244.65 389.39L241.92 386.33L239.32 383.17L236.83 379.92L234.47 376.56L232.23 373.11L230.13 369.57L228.16 365.95L226.33 362.24L224.64 358.46L223.09 354.59L221.69 350.66L220.45 346.66L219.35 342.59L218.42 338.45L217.65 334.26L217.05 330.02L216.61 325.72L216.34 321.38L216.32 320L429.36 320L429.33 321.38L429.07 325.72Z" id="afDKCZvXB"></path><path d="M483.83 316.1C483.83 404.95 411.69 477.09 322.84 477.09C233.98 477.09 161.84 404.95 161.84 316.1C161.84 227.24 233.98 155.11 322.84 155.11C411.69 155.11 483.83 227.24 483.83 316.1Z" id="a1M5dUQBDS"></path></defs><g><g><use xlink:href="#afDKCZvXB" opacity="1" fill="currentcolor" fill-opacity="1"></use></g><g><g><use xlink:href="#a1M5dUQBDS" opacity="1" fill-opacity="0" stroke="currentcolor" stroke-width="30" stroke-opacity="1"></use></g></g></g></svg>