<?xml version="1.0" encoding="UTF-8" standalone="no"?>
<!DOCTYPE svg PUBLIC "-//W3C//DTD SVG 1.1//EN" "http://www.w3.org/Graphics/SVG/1.1/DTD/svg11.dtd">
<svg version="1.1" xmlns="http://www.w3.org/2000/svg" xmlns:xlink="http://www.w3.org/1999/xlink" preserveAspectRatio="xMidYMid meet" viewBox="146.84397163120573 140.10638297872336 351.98581560283696 351.98581560283696" width="321.99" height="321.99"><defs><path d="M429.3 313.15L429.36 316.1L429.27 320.49L429 324.83L428.57 329.12L427.96 333.37L427.19 337.56L426.26 341.68L425.17 345.75L423.92 349.75L422.53 353.69L420.98 357.55L419.29 361.33L417.46 365.03L415.49 368.66L413.39 372.19L411.15 375.64L408.79 378.99L406.31 382.25L403.7 385.41L400.98 388.46L398.14 391.41L395.2 394.24L392.14 396.96L388.99 399.57L385.73 402.06L382.38 404.42L378.93 406.65L375.39 408.75L371.77 410.72L368.07 412.55L364.28 414.24L360.42 415.79L356.49 417.19L352.49 418.43L348.42 419.52L344.29 420.45L340.11 421.22L335.86 421.83L331.57 422.27L327.22 422.53L322.84 422.62L318.45 422.53L314.11 422.27L309.81 421.83L305.57 421.22L301.38 420.45L297.25 419.52L293.18 418.43L289.18 417.19L285.25 415.79L281.39 414.24L277.61 412.55L273.9 410.72L270.28 408.75L266.74 406.65L263.3 404.42L259.94 402.06L256.69 399.57L253.53 396.96L250.48 394.24L247.53 391.41L244.69 388.46L241.97 385.41L239.37 382.25L236.88 378.99L234.52 375.64L232.29 372.19L230.18 368.66L228.21 365.03L226.38 361.33L224.69 357.55L223.15 353.69L221.75 349.75L220.51 345.75L219.41 341.68L218.48 337.56L217.71 333.37L217.11 329.12L216.67 324.83L216.41 320.49L216.32 316.1L216.41 311.71L216.67 307.37L217.11 303.07L217.71 298.83L218.48 294.64L219.41 290.51L220.51 286.45L221.75 282.45L223.15 278.51L224.69 274.65L226.38 270.87L228.21 267.16L230.18 263.54L232.29 260.01L234.52 256.56L236.88 253.21L239.37 249.95L241.97 246.79L244.69 243.74L247.53 240.79L250.48 237.96L253.53 235.23L256.69 232.63L259.94 230.14L263.3 227.78L266.74 225.55L270.28 223.44L273.9 221.48L277.61 219.65L281.39 217.96L285.25 216.41L289.18 215.01L293.18 213.77L297.25 212.68L301.38 211.75L305.57 210.97L309.81 210.37L314.11 209.93L318.45 209.67L322.84 209.58L322.84 313.15L429.3 313.15Z" id="dsGrPz21T"></path><path d="M483.83 316.1C483.83 404.95 411.69 477.09 322.84 477.09C233.98 477.09 161.84 404.95 161.84 316.1C161.84 227.24 233.98 155.11 322.84 155.11C411.69 155.11 483.83 227.24 483.83 316.1Z" id="c3nwyJFsvR"></path></defs><g><g><use xlink:href="#dsGrPz21T" opacity="1" fill="currentcolor" fill-opacity="1"></use></g><g><g><use xlink:href="#c3nwyJFsvR" opacity="1" fill-opacity="0" stroke="currentcolor" stroke-width="30" stroke-opacity="1"></use></g></g></g></svg>